<svg xmlns="http://www.w3.org/2000/svg" xmlns:xlink="http://www.w3.org/1999/xlink" viewBox="0 0 430.44 323.57"><defs><style>.cls-1{fill:url(#linear-gradient);}.cls-2{opacity:0.52;}.cls-3{fill:#026666;opacity:0.36;}</style><linearGradient id="linear-gradient" x1="-16.06" y1="87.51" x2="446.62" y2="236.11" gradientUnits="userSpaceOnUse"><stop offset="0" stop-color="#028e9b"/><stop offset="1" stop-color="#008f7a"/></linearGradient></defs><g id="Layer_2" data-name="Layer 2"><g id="Layer_1-2" data-name="Layer 1"><rect class="cls-1" width="430.44" height="323.57"/><g class="cls-2"><rect class="cls-3" x="185.91" y="130.94" width="61.69" height="61.69" rx="4.15"/><path class="cls-3" d="M305.09,143.23c9.37,0,17.25,7.57,17.92,17.23.72,10.22-6.77,19.12-16.7,19.84-.43,0-.86,0-1.29,0-9.37,0-17.25-7.57-17.92-17.23-.72-10.23,6.77-19.13,16.69-19.85.43,0,.87,0,1.3,0m0-12.85c-.74,0-1.48,0-2.22.08-17,1.23-29.79,16.25-28.58,33.55A31.07,31.07,0,0,0,305,193.19c.74,0,1.48,0,2.22-.08,17-1.23,29.79-16.25,28.58-33.55a31.08,31.08,0,0,0-30.73-29.18Z"/><path class="cls-3" d="M156.76,192.91h-56.6a5.8,5.8,0,0,1-4.87-8.7l28.31-50.65a5.53,5.53,0,0,1,9.72,0l28.31,50.65A5.8,5.8,0,0,1,156.76,192.91Z"/></g></g></g></svg>